<svg id="Layer_1" enable-background="new 0 0 512 512" height="512" viewBox="0 0 512 512" width="512" xmlns="http://www.w3.org/2000/svg"><g clip-rule="evenodd" fill-rule="evenodd"><path d="m69.837 342.959-58.549 21.935c-2.166 6.931-3.337 14.331-3.337 21.993 0 40.652 32.992 73.613 73.683 73.613 37.325 0 68.151-27.726 73.01-63.699z" fill="#838383"/><path d="m355.701 369.836c-.351 0-.673 0-.995 0-1.317 5.469-1.991 11.172-1.991 17.051 0 40.652 32.992 73.613 73.683 73.613s73.683-32.961 73.683-73.613c0-5.879-.703-11.582-1.991-17.051l-65.896-16.232z" fill="#838383"/><path d="m223.117 269.492-66.453 71.8c2.635 6.083 7.67 23.807-.146 23.719l-4.538-.058c.029.029.029.058.029.088l53.894 17.606c78.514-3.48 51.406-1.784 108.959-55.568l9.368-57.586-49.649-28.018z" fill="#ececec"/><path d="m324.231 269.492h-101.114l-21.634 23.339h62.208c16.306 0 15.72-.731 6.411 14.974l-16.277 24.274c6.704 2.106 12.09 7.282 14.344 14.301l35.861-49.163z" fill="#cecece"/><path d="m83.479 295.638c-36.476-1.521-73.478 15.53-81.617 45.654-2.576 9.564-4.655 24.362 9.426 23.602h40.721 16.862l17.799-23.602z" fill="#fe636e"/><path d="m156.635 341.292c-7.67-18.308-21.751-30.709-38.408-37.933l-16.452 30.826 2.43 30.709h7.055 36.769l3.952.059 4.538.058c7.816.087 2.78-17.636.116-23.719z" fill="#fe636e"/><path d="m246.917 331.026c-6.353 0-12.09 2.603-16.189 6.785-3.718 3.773-6.118 8.832-6.47 14.448-.293 4.65.82 9.037 2.986 12.781h15.72c9.661 0 12.939-1.784 18.15-8.949l7.055-9.71c-3.014-9.301-11.415-15.355-21.252-15.355z" fill="#838383"/><path d="m441.708 179.179h-27.313c-8.226 0-15.72 3.159-21.37 8.306l-13.905 26.351 13.905 20.56c5.65 5.147 13.144 8.306 21.37 8.306h27.313c5.357 0 9.748-4.387 9.748-9.739v-44.045c.001-5.352-4.39-9.739-9.748-9.739z" fill="#fe636e"/><path d="m404.325 327.593-27.605-19.233c-14.579 8.394-26.201 20.765-32.026 36.85-3.425 9.534-6.148 24.04 10.012 24.625h.995 37.969 12.559z" fill="#fe636e"/><path d="m502.833 333.483c-21.077-32.317-62.706-43.168-98.508-35.534l-2.325 35.409 35.99 36.479h21.136 38.964c1.786 0 3.337-.146 4.742-.439 12.09-2.603 9.983-15.647 6.265-24.187-1.814-4.182-3.922-8.072-6.264-11.728z" fill="#fe636e"/><path d="m83.479 295.638c-36.476-1.521-73.478 15.53-81.617 45.654-2.137 7.955-3.923 19.537 3.63 22.754 12.91-25.795 39.608-43.548 70.434-43.548.79 0 1.552.029 2.313.059l1.522-7.253z" fill="#fb2a39"/><path d="m156.196 340.21c-7.787-17.723-21.634-29.773-37.969-36.85l-3.981 17.489-1.932 8.54c14.959 7.809 27.108 20.297 34.485 35.505h1.23l3.952.059 4.538.058c7.816.088 2.781-17.636.117-23.719-.147-.38-.293-.731-.44-1.082z" fill="#fb2a39"/><path d="m502.833 333.483c-10.773-16.495-26.903-27.404-44.848-33.107-17.213-5.469-36.124-6.171-53.66-2.427l1.727 3.714.468.965c18.209.351 36.388 5.323 51.464 15.237 8.812 5.82 16.54 13.336 22.6 22.607 2.342 3.627 4.45 7.546 6.265 11.728 2.313 5.323 4.011 12.43 1.991 17.636h9.251c1.786 0 3.337-.146 4.742-.439 12.09-2.603 9.983-15.647 6.265-24.187-1.815-4.181-3.923-8.071-6.265-11.727z" fill="#fb2a39"/><path d="m376.72 308.36c-6.821 3.919-12.969 8.715-18.209 14.331l4.977 10.324 16.247 33.867 1.434 2.954h12.5 12.559l-4.83-10.061-16.276-33.897-7.26-15.15z" fill="#fb2a39"/><path d="m441.708 179.179h-17.388c5.357 0 9.748 4.387 9.748 9.739v44.045c0 5.352-4.391 9.739-9.748 9.739h17.389c5.357 0 9.748-4.387 9.748-9.739v-44.045c0-5.352-4.391-9.739-9.749-9.739z" fill="#fb2a39"/><path d="m415.449 389.051-8.46-17.606-.761-1.609h-12.559c-2.664 5.118-4.186 10.909-4.186 17.051 0 20.355 16.54 36.88 36.915 36.88s36.886-16.524 36.886-36.88c0-6.142-1.493-11.933-4.157-17.051h-21.136l.732 1.609 1.581 3.393c9.133 19.507-18.151 28.164-24.855 14.213z" fill="#ececec"/><path d="m488.84 369.836h-15.691c1.317 5.469 1.991 11.172 1.991 17.051 0 36.412-26.464 66.652-61.213 72.56 4.04.702 8.226 1.053 12.471 1.053 40.691 0 73.683-32.961 73.683-73.613 0-5.879-.703-11.582-1.991-17.051z" fill="#595959"/><path d="m154.645 396.801-23.332.029c-4.362 32.142-29.508 57.703-61.476 62.733 3.835.614 7.787.936 11.798.936 37.324.001 68.15-27.725 73.01-63.698z" fill="#595959"/><path d="m68.871 364.894h-16.862c-4.567 6.142-7.289 13.746-7.289 21.993 0 20.355 16.54 36.88 36.915 36.88 16.921 0 31.206-11.406 35.539-26.936z" fill="#ececec"/></g><path d="m309.687 289.431 1.943 10.009-13.279 5.568h-45.73c-4.296 0-7.778-3.493-7.778-7.789 0-4.306 3.482-7.789 7.778-7.789h51.406c1.71.001 5.66.001 5.66.001z" fill="#838383"/><path d="m375.67 136.636c-2.996 0-5.852-1.739-7.134-4.657l-16.891-38.459c-1.729-3.938.061-8.533 3.999-10.262 3.936-1.731 8.531.06 10.261 3.998l19.764 44.957c1.729 3.938-1.766 5.814-5.704 7.544-1.018.447-3.25-3.121-4.295-3.121z" fill="#cecece"/><path clip-rule="evenodd" d="m362.634 269.496v8.479l-78.572 102.683c-10.858 16.082-22.973 16.082-26.723 16.082l-102.699.062-37.468.031-30.617.031 1.432-20.852 16.184-10.972h138.796c9.653 0 12.939-1.782 18.152-8.953l7.046-9.705 30.184-41.374 5.676-7.789 4.584-6.295 15.618-21.429 19.081-13.495z" fill="#ffbf00" fill-rule="evenodd"/><path clip-rule="evenodd" d="m358.774 58.86-38.964-7.253c-4.947-.907-9.134 4.124-9.134 9.154v20.502c0 5.03 4.098 9.125 9.134 9.125h38.964c5.035 0 9.163-4.094 9.163-9.125v-13.278c0-5.031-4.215-8.219-9.163-9.125z" fill="#fe636e" fill-rule="evenodd"/><path clip-rule="evenodd" d="m367.937 67.985c0-5.03-4.215-8.218-9.163-9.125l-11.007-2.047c2.518 1.813 4.215 4.592 4.215 8.218v15.003c0 5.703-4.128 10.353-9.134 10.353h15.925c5.035 0 9.163-4.094 9.163-9.125v-13.277z" fill="#fb2a39" fill-rule="evenodd"/><path clip-rule="evenodd" d="m66.763 374.837c-2.752 16.056 9.251 23.719 19.819 21.496 5.357-1.141 10.334-4.826 12.793-11.26.498-1.287.908-2.72 1.2-4.241 8.46-37.084 16.921-74.198 25.381-111.341l-18.817-19.158-18.127 19.158c-7.407 35.126-14.842 70.251-22.249 105.346z" fill="#ffd659" fill-rule="evenodd"/><path clip-rule="evenodd" d="m125.956 269.492h-36.944c-3.601 17.021-7.172 34.043-10.773 51.064 12.266.351 23.829 3.48 34.075 8.832 4.538-19.975 9.104-39.921 13.642-59.896z" fill="#ffbf00" fill-rule="evenodd"/><path clip-rule="evenodd" d="m192.409 213.427h-123.128c-12.588-.643-17.828-17.255-30.24-17.314l-14.052.058c-10.187-.614-22.131 3.539-22.131 19.449v7.692 24.918c0 11.64 8.372 21.262 24.298 21.262h61.857 36.944 97.161l27.313-28.018-27.313-28.047z" fill="#838383" fill-rule="evenodd"/><path clip-rule="evenodd" d="m198.117 213.427h25v56.065h-25z" fill="#595959" fill-rule="evenodd"/><path clip-rule="evenodd" d="m362.639 219.685c0-41.852-115.253-47.233-139.521-6.259v56.065h101.113 38.408l13.027-26.79z" fill="#fe636e" fill-rule="evenodd"/><path clip-rule="evenodd" d="m362.639 219.685c0-36.499-87.618-45.244-126.143-19.741 42.36-10.499 100.264.819 100.264 30.504v39.044h25.879v-5.411z" fill="#fb2a39" fill-rule="evenodd"/><path clip-rule="evenodd" d="m375.666 128.846-51.289-.175c-20.141-.088-20.258 28.193-.263 29.363l38.525 2.252v59.399 44.396 5.411 8.481 1.082l15.223 31.674 7.26 15.15 16.276 33.897 5.591 11.669 8.46 17.606c6.704 13.951 33.987 5.294 24.854-14.214l-1.581-3.393-9.983-21.35-16.599-35.447-6.089-12.985-13.027-27.872v-39.395-46.911-40.36c0-3.217-.761-5.966-2.02-8.189-2.575-5.906-8.488-10.059-15.338-10.089z" fill="#ffd659" fill-rule="evenodd"/><path clip-rule="evenodd" d="m391.005 138.936c-2.576-5.908-8.49-10.061-15.34-10.09l-13.817-.029c6.792.029 12.676 4.182 15.252 10.061 1.259 2.252 2.02 4.972 2.02 8.189v40.36 46.911 39.395l12.939 27.667.117.205 6.06 12.985 16.599 35.447 9.28 19.8.732 1.579 1.552 3.363c4.479 9.534.234 16.495-6.06 19.478 10.012 5.498 27.547-3.217 19.965-19.42l-1.581-3.393-.732-1.609-9.251-19.741-16.599-35.447-5.621-12.02-.468-.965-1.727-3.714-11.3-24.157v-39.395-46.911-40.36c0-3.217-.761-5.966-2.02-8.189z" fill="#ffbf00" fill-rule="evenodd"/></svg>