<svg height="512" viewBox="0 0 64 64" width="512" xmlns="http://www.w3.org/2000/svg"><g id="Flat"><g id="Color"><g><g><path d="m49 3h4v9h-4z" fill="#e6f0f0"/><path d="m51 4v-1h-2v9h4v-5.184a2.99 2.99 0 0 1 -2-2.816z" fill="#d0d8da"/><path d="m48.775 8a12.262 12.262 0 0 0 -11.775 12.4v.761a14.545 14.545 0 0 1 -4.7 10.519 17 17 0 1 0 28.7 12.32v-1.089a12.653 12.653 0 0 0 -1.388-5.761 6 6 0 0 1 .365-6.084 6 6 0 0 0 1.023-3.351v-7.715a12 12 0 0 0 -12.225-12z" fill="#ffe9e9"/><path d="m55.058 53.892a16.988 16.988 0 0 1 -14.575-20.906 13 13 0 0 0 12.3-10.632 2 2 0 0 0 -1.971-2.354 1.977 1.977 0 0 0 -1.955 1.605 9 9 0 0 1 -6.7 7.127 17.079 17.079 0 0 1 3.143-4.052 14.545 14.545 0 0 0 4.7-10.521v-.759a12.589 12.589 0 0 1 1.138-5.2 12.123 12.123 0 0 0 -2.363-.2 12.262 12.262 0 0 0 -11.775 12.4v.761a14.545 14.545 0 0 1 -4.7 10.519 16.993 16.993 0 1 0 25.47 22.278 17.436 17.436 0 0 1 -2.712-.066z" fill="#fcc"/><g fill="#f89c8d"><path d="m54.157 39.345a2.2 2.2 0 0 1 -2.97 1.054 4.237 4.237 0 0 1 -.975-.668l-.012-.011c-1.08-1.07-3.56-1.72-5.2-1.72a5.341 5.341 0 0 0 -3.465 1.919 3.742 3.742 0 0 1 -2.658 1.081h-5.537a3.127 3.127 0 0 1 -.43-3.78 4.462 4.462 0 0 1 4-2.23c.162.01.324.028.484.054a2.7 2.7 0 0 0 2.6-1.161 2.887 2.887 0 0 0 .194-2.926 5.227 5.227 0 0 1 -.188-3.947 17.542 17.542 0 0 0 1-5.85v-.76a8.252 8.252 0 0 1 7.85-8.4h.1a8.073 8.073 0 0 1 8.05 8.05v6.06a5.892 5.892 0 0 1 -5.85 5.89 2.181 2.181 0 0 0 -2.13 1.74 2 2 0 0 0 1.98 2.26 5.989 5.989 0 0 1 1.865.3 2.214 2.214 0 0 1 1.292 3.05z"/><circle cx="45" cy="45" r="2.5"/><path d="m38.823 49.065a4.018 4.018 0 0 0 -.856-.065 2.986 2.986 0 0 1 -2.407-1.25 5.791 5.791 0 0 0 -3.5-2.36l-.99-.02a13 13 0 0 0 11.43 11.55c.51.05 1.03.08 1.54.08a8.894 8.894 0 0 0 5.12-1.74l2.94-2.12a12.022 12.022 0 0 0 3.34-3.7 3 3 0 0 0 -2.64-4.44 2.3 2.3 0 0 0 -1.832.912c.151 1.423-.174 2.992-2.167 4.755a5.033 5.033 0 0 1 -3.301 1.333 5.471 5.471 0 0 1 -3.935-1.664 3.639 3.639 0 0 0 -1.792-1.058z"/></g><path d="m48.85 12a8.252 8.252 0 0 0 -7.85 8.4v.76a17.542 17.542 0 0 1 -1 5.85 5.231 5.231 0 0 0 .189 3.947 2.887 2.887 0 0 1 -.194 2.926 2.7 2.7 0 0 1 -2.6 1.161c-.16-.026-.322-.044-.484-.054a4.462 4.462 0 0 0 -4 2.23 3.127 3.127 0 0 0 .429 3.78h5.537a3.831 3.831 0 0 0 1.532-.325 16.622 16.622 0 0 1 -.319-1.9 17.118 17.118 0 0 1 .393-5.787c6.158-.225 11.925-4.644 12.3-10.632.217-3.356-1.726-5.356-2.971-5.356-.952 0-.786 3.669-.955 4.605a9 9 0 0 1 -6.7 7.127 17.079 17.079 0 0 1 3.143-4.052 14.545 14.545 0 0 0 4.7-10.521v-.759a12.352 12.352 0 0 1 .073-1.31 8 8 0 0 0 -1.123-.09z" fill="#f8664f"/><path d="m41.563 50.336a3.639 3.639 0 0 0 -1.792-1.058l-.948-.213a4.018 4.018 0 0 0 -.856-.065 2.983 2.983 0 0 1 -2.407-1.25 5.791 5.791 0 0 0 -3.5-2.36l-.99-.02a13 13 0 0 0 11.43 11.55c.51.05 1.03.08 1.54.08a8.894 8.894 0 0 0 5.12-1.74l2.806-2.023a16.828 16.828 0 0 1 -4.094-1.915 4.748 4.748 0 0 1 -2.372.678 5.471 5.471 0 0 1 -3.937-1.664z" fill="#f8664f"/><path d="m47.857 18.605a9 9 0 0 1 -9.457 7.376 9.205 9.205 0 0 1 -8.4-9.289v-3.692h5l-3.271-2.617a3.513 3.513 0 0 0 -5.729 2.551v3.7c0 6.824 5.555 13.031 12.372 13.352a13 13 0 0 0 13.415-10.632 2 2 0 0 0 -1.975-2.354 1.977 1.977 0 0 0 -1.955 1.605z" fill="#e6f0f0"/></g><g><path d="m30 3h4v9h-4z" fill="#e6f0f0"/><path d="m32 4v-1h-2v9h4v-5.184a2.99 2.99 0 0 1 -2-2.816z" fill="#d0d8da"/><path d="m28.775 8a12.262 12.262 0 0 0 -11.775 12.4v.761a14.545 14.545 0 0 1 -4.7 10.519 17 17 0 1 0 28.7 12.32v-24a12 12 0 0 0 -12.225-12z" fill="#ffe9e9"/><path d="m35.058 53.892a16.988 16.988 0 0 1 -14.575-20.906 13 13 0 0 0 12.3-10.632 2 2 0 0 0 -1.971-2.354 1.977 1.977 0 0 0 -1.955 1.605 9 9 0 0 1 -6.7 7.127 17.079 17.079 0 0 1 3.143-4.052 14.545 14.545 0 0 0 4.7-10.521v-.759a12.589 12.589 0 0 1 1.138-5.2 12.123 12.123 0 0 0 -2.363-.2 12.262 12.262 0 0 0 -11.775 12.4v.761a14.545 14.545 0 0 1 -4.7 10.519 16.993 16.993 0 1 0 25.47 22.278 17.436 17.436 0 0 1 -2.712-.066z" fill="#fcc"/><g fill="#f89c8d"><path d="m29.02 33.74a2 2 0 0 0 1.98 2.26 5.954 5.954 0 0 1 4.008 1.538 2 2 0 0 1 -1.378 3.462h-.579a4.135 4.135 0 0 1 -2.839-1.269l-.012-.011c-1.08-1.07-3.56-1.72-5.2-1.72a5.341 5.341 0 0 0 -3.465 1.919 3.742 3.742 0 0 1 -2.658 1.081h-5.537a3.127 3.127 0 0 1 -.43-3.78 4.462 4.462 0 0 1 4-2.23 4.2 4.2 0 0 1 1.9.56 2.01 2.01 0 0 0 2.59-.48 2.179 2.179 0 0 0 -.28-2.77 5.139 5.139 0 0 1 -1.12-5.29 17.542 17.542 0 0 0 1-5.85v-.76a8.252 8.252 0 0 1 7.85-8.4h.1a8.073 8.073 0 0 1 8.05 8.05v6.06a5.892 5.892 0 0 1 -5.85 5.89 2.181 2.181 0 0 0 -2.13 1.74z"/><circle cx="25" cy="45" r="2.5"/><path d="m18.823 49.065a4.018 4.018 0 0 0 -.856-.065 2.986 2.986 0 0 1 -2.407-1.25 5.791 5.791 0 0 0 -3.5-2.36l-.99-.02a13 13 0 0 0 11.43 11.55c.51.05 1.03.08 1.54.08a8.894 8.894 0 0 0 5.12-1.74l2.94-2.12a12.022 12.022 0 0 0 3.34-3.7 3 3 0 0 0 -2.64-4.44 2.3 2.3 0 0 0 -1.832.912c.151 1.423-.174 2.992-2.167 4.755a5.033 5.033 0 0 1 -3.301 1.333 5.471 5.471 0 0 1 -3.935-1.664 3.639 3.639 0 0 0 -1.792-1.058z"/></g><path d="m28.85 12a8.252 8.252 0 0 0 -7.85 8.4v.76a17.542 17.542 0 0 1 -1 5.85 5.139 5.139 0 0 0 1.12 5.29 2.234 2.234 0 0 1 .418.6 13 13 0 0 0 11.249-10.546 2 2 0 0 0 -1.975-2.354 1.977 1.977 0 0 0 -1.955 1.605 9 9 0 0 1 -6.7 7.127 17.079 17.079 0 0 1 3.143-4.052 14.545 14.545 0 0 0 4.7-10.521v-.759a12.352 12.352 0 0 1 .073-1.31 8 8 0 0 0 -1.123-.09z" fill="#f8664f"/><path d="m20.044 35.808a2 2 0 0 1 -1.234-.258 4.2 4.2 0 0 0 -1.9-.56 4.462 4.462 0 0 0 -4 2.23 3.127 3.127 0 0 0 .43 3.78h5.537a3.831 3.831 0 0 0 1.532-.325 16.622 16.622 0 0 1 -.319-1.9 17.234 17.234 0 0 1 -.046-2.967z" fill="#f8664f"/><path d="m21.563 50.336a3.639 3.639 0 0 0 -1.792-1.058l-.948-.213a4.018 4.018 0 0 0 -.856-.065 2.983 2.983 0 0 1 -2.407-1.25 5.791 5.791 0 0 0 -3.5-2.36l-.99-.02a13 13 0 0 0 11.43 11.55c.51.05 1.03.08 1.54.08a8.894 8.894 0 0 0 5.12-1.74l2.806-2.023a16.828 16.828 0 0 1 -4.094-1.915 4.748 4.748 0 0 1 -2.372.678 5.471 5.471 0 0 1 -3.937-1.664z" fill="#f8664f"/><path d="m28.857 18.605a9 9 0 0 1 -9.457 7.376 9.205 9.205 0 0 1 -8.4-9.289v-3.692h5l-3.271-2.617a3.513 3.513 0 0 0 -5.729 2.551v3.7c0 6.824 5.555 13.031 12.372 13.352a13 13 0 0 0 13.415-10.632 2 2 0 0 0 -1.975-2.354 1.977 1.977 0 0 0 -1.955 1.605z" fill="#e6f0f0"/><path d="m21.372 28.985c-6.817-.321-12.372-6.528-12.372-13.352v-3.7a3.251 3.251 0 0 1 .97-2.287 3.4 3.4 0 0 0 -2.97 3.288v3.7c0 6.824 5.555 13.031 12.372 13.352a12.94 12.94 0 0 0 7.407-1.905 12.962 12.962 0 0 1 -5.407.904z" fill="#d0d8da"/></g></g></g></g></svg>