<svg xmlns="http://www.w3.org/2000/svg" width="11.48" height="13.998" viewBox="0 0 11.48 13.998"><path d="M10.669,217.847V211.23a.415.415,0,0,0-.121-.29l-.82-.82a.41.41,0,0,0-.58,0l-.531.53-.531-.53a.41.41,0,0,0-.58,0l-.531.53-.531-.53a.41.41,0,0,0-.58,0l-.531.53-.531-.53a.41.41,0,0,0-.58,0l-.531.53-.531-.53a.41.41,0,0,0-.58,0l-.531.53-.531-.53a.41.41,0,0,0-.58,0l-.82.82a.415.415,0,0,0-.121.29v6.616a.41.41,0,0,0,.41.41h9.848a.41.41,0,0,0,.41-.41Zm-1.762-1.958a.41.41,0,1,1-.58.58l-.7-.7H3.043l-.7.7a.41.41,0,1,1-.58-.58l.531-.53-.531-.53a.41.41,0,1,1,.58-.58l.7.7H7.627l.7-.7a.41.41,0,1,1,.58.58l-.531.53Zm0,0" transform="translate(0 -204.259)" fill="#77ba00"/><path d="M.582,5.11a1.223,1.223,0,0,1,1.469.125A1.208,1.208,0,0,1,2.6,4.972a2.436,2.436,0,0,1,.2-.449l-.93-.465a.41.41,0,1,1,.367-.734l1.047.523V2.871a.41.41,0,1,1,.82,0v.561a2.354,2.354,0,0,1,1.934.124c.234-.46.477-.906.732-1.317a2.039,2.039,0,0,0-1.061-.564,2.051,2.051,0,0,0-4.032,0A2.041,2.041,0,0,0,.582,5.11Zm0,0" transform="translate(0 0)" fill="#77ba00"/><path d="M125.332,150.972a1.214,1.214,0,0,1,.264.162,1.216,1.216,0,0,1,1.6-.023c.117-.3.248-.607.384-.91a1.624,1.624,0,0,0-.756-.2A1.64,1.64,0,0,0,125.332,150.972Zm0,0" transform="translate(-121.903 -145.899)" fill="#77ba00"/><path d="M230.672,165.184a1.208,1.208,0,0,1,.536-.261l-1.024-.477c-.068.15-.132.3-.2.45A1.213,1.213,0,0,1,230.672,165.184Zm0,0" transform="translate(-223.697 -159.949)" fill="#77ba00"/><path d="M254.474.092c-.407-.19-1.116-.166-2.189,1.022a10.51,10.51,0,0,0-.93,1.229l1.385.646a.41.41,0,0,1-.347.743l-1.473-.687c-.136.233-.268.471-.4.72l1.524.711a.41.41,0,0,1,.2.545.394.394,0,0,1-.111.125,1.2,1.2,0,0,1,.151.092,1.23,1.23,0,0,1,1.69.047l.218.218c1-2.4,1.4-4.89.28-5.411Zm0,0" transform="translate(-243.668 -0.003)" fill="#77ba00"/></svg>