<?xml version="1.0" encoding="utf-8"?>
<!-- Generator: Adobe Illustrator 22.1.0, SVG Export Plug-In . SVG Version: 6.00 Build 0)  -->
<svg xmlns="http://www.w3.org/2000/svg" xmlns:xlink="http://www.w3.org/1999/xlink" version="1.1" id="Layer_1" x="0px" y="0px" viewBox="0 0 512 512" style="enable-background:new 0 0 512 512;" xml:space="preserve" width="512" height="512">
<style type="text/css">
	.st0{fill:#FFA730;}
	.st1{fill:#E58D23;}
	.st2{fill:#BF6C0D;}
	.st3{fill:#A56021;}
	.st4{fill:#FFD551;}
	.st5{fill:#FFF4C1;}
	.st6{fill:#FFC34C;}
	.st7{fill:#FFEA63;}
	.st8{fill:#FCE575;}
	.st9{fill:#FFB74B;}
	.st10{fill:#8C4C17;}
	.st11{fill:#F9BB32;}
	.st12{fill:#FF4B34;}
	.st13{fill:#FF9079;}
	.st14{fill:#FFDF74;}
	.st15{fill:#FF624B;}
	.st16{fill:#CCC033;}
	.st17{fill:#EACF32;}
	.st18{fill:#FFEACF;}
	.st19{fill:#99AF17;}
	.st20{fill:#FFD59A;}
	.st21{fill:#FCDA4F;}
	.st22{fill:#FCF9DE;}
	.st23{fill:#DB9C2E;}
</style>
<g>
	<g>
		<g>
			<path class="st15" d="M204.775,47.648v72.005h102.45V47.648H204.775z M295.836,107.218h-80.617V60.083h80.617V107.218z"/>
		</g>
	</g>
	<g>
		<g>
			<g>
				<polygon class="st12" points="215.219,107.218 215.219,60.083 247.936,60.083 247.936,47.648 204.775,47.648 204.775,119.653       247.936,119.653 247.936,107.218     "/>
			</g>
		</g>
	</g>
	<g>
		<g>
			<path class="st15" d="M306.867,484.496H205.133c-8.284,0-15-6.716-15-15v-32.211h131.734v32.211     C321.867,477.78,315.151,484.496,306.867,484.496z"/>
		</g>
	</g>
	<g>
		<g>
			<path class="st12" d="M228.978,468.31v-31.026h-38.845v31.026c0,8.939,7.247,16.185,16.185,16.185h38.845     C236.225,484.496,228.978,477.249,228.978,468.31z"/>
		</g>
	</g>
	<g>
		<g>
			<path class="st12" d="M190.133,467.555c9.468,2.886,19.515,4.443,29.927,4.443h71.879c10.412,0,20.459-1.557,29.927-4.443v-30.27     H190.133V467.555z"/>
		</g>
	</g>
	<g>
		<g>
			<rect x="246.962" y="84.087" class="st9" width="18.217" height="25.08"/>
		</g>
	</g>
	<g>
		<g>
			<path class="st12" d="M274.739,84.087h-36.266c-2.857,0-5.174-2.316-5.174-5.174v-0.818c0-2.857,2.316-5.174,5.174-5.174h36.266     c2.857,0,5.174,2.316,5.174,5.174v0.818C279.913,81.771,277.597,84.087,274.739,84.087z"/>
		</g>
	</g>
	<g>
		<g>
			<path class="st0" d="M274.019,118.822h-35.898v-18.624c0-2.761,2.239-5,5-5h25.898c2.761,0,5,2.239,5,5V118.822z"/>
		</g>
	</g>
	<g>
		<g>
			<path class="st15" d="M291.94,105.335H220.06c-56.614,0-102.508,45.894-102.508,102.508v6.002v138.854v6.002     c0,56.614,45.894,102.508,102.508,102.508h71.879c56.613,0,102.508-45.894,102.508-102.508v-6.002V213.844v-6.002     C394.447,151.229,348.553,105.335,291.94,105.335z"/>
		</g>
	</g>
	<g>
		<g>
			<path class="st13" d="M321.23,47.648H190.77c-5.155,0-9.334-4.179-9.334-9.334v-1.475c0-5.155,4.179-9.334,9.334-9.334h130.46     c5.155,0,9.334,4.179,9.334,9.334v1.475C330.564,43.469,326.385,47.648,321.23,47.648z"/>
		</g>
	</g>
	<g>
		<g>
			<path class="st12" d="M160.714,380.28v-6.002V235.425v-6.002c0-56.614,45.894-102.508,102.508-102.508h71.879     c7.883,0,15.558,0.893,22.93,2.577c-17.846-15.069-40.905-24.158-66.091-24.158H220.06c-56.614,0-102.508,45.894-102.508,102.508     v6.002v138.854v6.002c0,48.731,34.004,89.516,79.578,99.931C174.861,439.827,160.714,411.708,160.714,380.28z"/>
		</g>
	</g>
	<g>
		<g>
			<path class="st13" d="M402.151,221.326H109.849c-6.482,0-11.736-5.255-11.736-11.736v-1.855c0-6.482,5.255-11.736,11.736-11.736     h292.302c6.482,0,11.736,5.255,11.736,11.736v1.855C413.887,216.071,408.633,221.326,402.151,221.326z"/>
		</g>
	</g>
	<g>
		<g>
			<path class="st13" d="M402.151,372.096H109.849c-6.482,0-11.736-5.255-11.736-11.736v-1.855c0-6.482,5.255-11.736,11.736-11.736     h292.302c6.482,0,11.736,5.255,11.736,11.736v1.855C413.887,366.842,408.633,372.096,402.151,372.096z"/>
		</g>
	</g>
	<g>
		<g>
			<path class="st18" d="M389.44,213.983h-72.655c-3.313,0-6-2.686-6-6s2.687-6,6-6h72.655c3.313,0,6,2.686,6,6     S392.754,213.983,389.44,213.983z"/>
		</g>
	</g>
	<g>
		<g>
			<path class="st18" d="M389.44,365.047h-72.655c-3.313,0-6-2.687-6-6s2.687-6,6-6h72.655c3.313,0,6,2.687,6,6     S392.754,365.047,389.44,365.047z"/>
		</g>
	</g>
	<g>
		<g>
			<path class="st13" d="M371.097,337.352c-3.313,0-6-2.686-6-6v-93.516c0-3.314,2.687-6,6-6s6,2.686,6,6v93.516     C377.097,334.666,374.41,337.352,371.097,337.352z"/>
		</g>
	</g>
	<g>
		<g>
			<path class="st13" d="M316.467,443.286c-2.709,0-5.166-1.847-5.828-4.596c-0.776-3.222,1.206-6.462,4.428-7.238     c42.197-10.166,44.984-45.465,45.008-45.82c0.216-3.307,3.073-5.814,6.379-5.596c3.307,0.216,5.812,3.072,5.596,6.378     c-0.03,0.464-0.825,11.514-7.957,23.976c-6.54,11.427-19.867,26.38-46.215,32.728     C317.405,443.231,316.932,443.286,316.467,443.286z"/>
		</g>
	</g>
	<g>
		<g>
			<circle class="st12" cx="195.035" cy="404.69" r="16.185"/>
		</g>
	</g>
	<g>
		<g>
			<circle class="st12" cx="245.164" cy="427.919" r="16.185"/>
		</g>
	</g>
	<g>
		<g>
			<path class="st15" d="M152.064,359.432L152.064,359.432c0-6.994,5.67-12.664,12.664-12.664h-53.951     c-6.994,0-12.664,5.67-12.664,12.664l0,0c0,6.994,5.67,12.664,12.664,12.664h53.951     C157.734,372.096,152.064,366.427,152.064,359.432z"/>
		</g>
	</g>
	<g>
		<g>
			<path class="st15" d="M152.064,208.662L152.064,208.662c0-6.994,5.67-12.664,12.664-12.664h-53.951     c-6.994,0-12.664,5.67-12.664,12.664l0,0c0,6.994,5.67,12.664,12.664,12.664h53.951     C157.734,221.326,152.064,215.655,152.064,208.662z"/>
		</g>
	</g>
	<g>
		<g>
			<path class="st15" d="M235.387,37.577L235.387,37.577c0-5.563,4.509-10.072,10.072-10.072h-53.951     c-5.563,0-10.072,4.509-10.072,10.072l0,0c0,5.562,4.509,10.072,10.072,10.072h53.951     C239.896,47.648,235.387,43.139,235.387,37.577z"/>
		</g>
	</g>
</g>
</svg>
