<svg xmlns="http://www.w3.org/2000/svg" width="12.48" height="13.998" viewBox="0 0 12.48 13.998"><path d="M40.465,13.48l-1.11-4.057A.41.41,0,0,0,39.2,9.2L36.51,7.286a3.17,3.17,0,0,0,.9-2.208,14.391,14.391,0,0,0-.038-2.046A3,3,0,0,0,34.3,0h-.128a3,3,0,0,0-3.069,3.032,14.391,14.391,0,0,0-.038,2.046,3.17,3.17,0,0,0,.9,2.208L29.282,9.2a.41.41,0,0,0-.158.226l-1.11,4.057a.41.41,0,0,0,.4.518h5.419V9.664l.411-.269.411.269V14h5.419A.41.41,0,0,0,40.465,13.48ZM33.972,1.329h.536a.41.41,0,1,1,0,.82h-.536a.41.41,0,1,1,0-.82Zm-.142,7.354-.9.593-1.2-.807.922-.656a3.16,3.16,0,0,0,1.185.4Zm.41-1.262A2.348,2.348,0,0,1,31.89,5.078c0-.294,0-.537,0-.74l.221.322a.411.411,0,0,0,.339.178h3.581a.411.411,0,0,0,.339-.178l.221-.322c0,.2,0,.447,0,.74A2.347,2.347,0,0,1,34.24,7.421Zm.41,1.262V8.215a3.157,3.157,0,0,0,1.185-.4l.922.656-1.2.807Zm3.077,3.568h-1.44a.41.41,0,1,1,0-.82h1.44a.41.41,0,1,1,0,.82Z" transform="translate(-28)" fill="#77ba00"/></svg>