<svg xmlns="http://www.w3.org/2000/svg" width="13.998" height="13.998" viewBox="0 0 13.998 13.998"><path d="M14,7A7,7,0,1,1,7,0,7,7,0,0,1,14,7Zm0,0" fill="#77ba00"/><g transform="translate(1.991 1.913)"><path d="M176.145,73.058l-.5.5.58.58.5-.5a1.6,1.6,0,0,0,.41.17v.7h.82v-.706a1.6,1.6,0,0,0,.4-.166l.5.5.58-.58-.5-.5a1.6,1.6,0,0,0,.166-.4h.714v-.82h-.716a1.6,1.6,0,0,0-.167-.4l.507-.507-.58-.58-.508.508a1.6,1.6,0,0,0-.392-.164v-.713h-.82v.71a1.6,1.6,0,0,0-.405.167l-.508-.508-.58.58.507.507a1.592,1.592,0,0,0-.167.4h-.722v.82h.72a1.6,1.6,0,0,0,.166.4Zm.942-1.458a.79.79,0,0,1,1.237.577v.144a.79.79,0,1,1-1.436-.522Zm0,0" transform="translate(-172.458 -69.981)" fill="#fff"/><path d="M76.782,227.4h2.561a3.526,3.526,0,0,1,2.044.623l.8.572V227.7l-.376-.269a4.339,4.339,0,0,0-2.457-.851H76.782a1.065,1.065,0,0,0-.907.508l-1.114-1.093a1.131,1.131,0,0,0-.8-.326h-.011a1.138,1.138,0,0,0-.786,1.95l2.7,2.65a1.91,1.91,0,0,0,1.346.55h4.973V230H77.213a1.094,1.094,0,0,1-.771-.315l-2.7-2.65a.318.318,0,0,1,.219-.544h0a.316.316,0,0,1,.222.091l1.746,1.713,0,0a1.065,1.065,0,0,0,.247.235,1.446,1.446,0,0,0,.508.228c.114.021,2.05.226,2.878.314l.086-.816c-1.055-.111-2.665-.283-2.818-.305a.726.726,0,0,1-.192-.1.245.245,0,0,1,.138-.447Zm0,0" transform="translate(-72.827 -221.411)" fill="#fff"/></g></svg>