<?xml version="1.0" encoding="iso-8859-1"?>
<!-- Generator: Adobe Illustrator 19.0.0, SVG Export Plug-In . SVG Version: 6.00 Build 0)  -->
<svg version="1.1" id="Capa_1" xmlns="http://www.w3.org/2000/svg" xmlns:xlink="http://www.w3.org/1999/xlink" x="0px" y="0px"
	 viewBox="0 0 512 512" style="enable-background:new 0 0 512 512;" xml:space="preserve">
<path style="fill:#1592F7;" d="M468.993,512H43.007c-9.889,0-17.074-9.421-14.469-18.955l40.56-148.395
	c0.912-3.337,2.95-6.257,5.768-8.264l113.719-80.978c5.219-3.716,12.222-3.707,17.431,0.021
	c14.633,10.475,31.917,16.012,49.984,16.012c18.066,0,35.35-5.537,49.984-16.012c5.209-3.729,12.212-3.738,17.43-0.021
	l113.72,80.978c2.818,2.007,4.856,4.927,5.769,8.264l40.559,148.395C486.068,502.585,478.875,512,468.993,512z"/>
<g>
	<path style="fill:#117EE1;" d="M483.462,493.045L442.903,344.65c-0.913-3.337-2.951-6.257-5.769-8.264l-113.72-80.978
		c-5.219-3.717-12.221-3.708-17.43,0.021c-14.633,10.475-31.918,16.012-49.984,16.012V512h212.993
		C478.875,512,486.068,502.585,483.462,493.045z"/>
	<path style="fill:#117EE1;" d="M241,270.128V512h29.999V270.128c-4.912,0.861-9.923,1.314-15,1.314
		C250.923,271.442,245.912,270.99,241,270.128z"/>
</g>
<g>
	<path style="fill:#0C6BCB;" d="M270.999,270.128c-4.912,0.861-9.923,1.314-14.999,1.314V512h14.999V270.128z"/>
	<path style="fill:#0C6BCB;" d="M383.087,297.901l-59.674-42.492c-5.219-3.717-12.221-3.708-17.43,0.021
		c-14.633,10.475-31.918,16.012-49.984,16.012c-18.067,0-35.35-5.537-49.984-16.012c-5.209-3.729-12.212-3.737-17.431-0.021
		l-59.673,42.492c-8.536,6.079-8.356,18.84,0.346,24.677l70.309,47.151c4.997,3.351,11.533,3.401,16.591,0.078L256,343.627
		l39.842,26.18c5.036,3.309,11.574,3.287,16.591-0.078l70.309-47.151C391.443,316.742,391.624,303.979,383.087,297.901z"/>
</g>
<path style="fill:#0857B5;" d="M383.087,297.901l-59.674-42.492c-5.219-3.717-12.221-3.708-17.43,0.021
	c-14.633,10.475-31.918,16.012-49.984,16.012v72.185l39.841,26.18c5.036,3.309,11.574,3.287,16.591-0.078l70.309-47.151
	C391.443,316.742,391.624,303.979,383.087,297.901z"/>
<path style="fill:#FBB200;" d="M256,301.442c-24.367,0-47.689-7.476-67.445-21.617c-30.309-21.714-48.401-56.893-48.401-94.106
	c0-62.489-0.431-63.958,1.557-75.964c1.199-7.24,7.46-12.551,14.798-12.551h198.982c7.339,0,13.6,5.311,14.798,12.551
	c1.987,12.008,1.557,13.492,1.557,75.964c0,37.214-18.092,72.393-48.397,94.104C303.688,293.967,280.366,301.442,256,301.442z"/>
<path style="fill:#F79B00;" d="M370.289,109.755c-1.198-7.24-7.46-12.551-14.798-12.551H256v204.238
	c24.366,0,47.688-7.476,67.449-21.62c30.305-21.711,48.397-56.89,48.397-94.104C371.846,123.247,372.276,121.763,370.289,109.755z"
	/>
<path style="fill:#1592F7;" d="M321.43,176.939H190.569c-4.949,0-9.578-2.44-12.375-6.523l-34.067-49.735
	c-6.807-9.937,0.328-23.477,12.375-23.477h198.996c12.045,0,19.183,13.538,12.375,23.477l-34.067,49.735
	C331.008,174.499,326.378,176.939,321.43,176.939z"/>
<path style="fill:#117EE1;" d="M355.498,97.204H256v79.735h65.43c4.948,0,9.578-2.44,12.375-6.523l34.067-49.735
	C374.68,110.742,367.542,97.204,355.498,97.204z"/>
<path style="fill:#0C6BCB;" d="M355.491,127.204H156.509c-8.284,0-15-6.716-15-15C141.509,48.237,189.727,0,253.667,0h4.664
	C322.273,0,370.49,48.237,370.49,112.204C370.49,120.488,363.775,127.204,355.491,127.204z"/>
<path style="fill:#0857B5;" d="M258.332,0H256v127.204h99.491c8.284,0,15-6.716,15-15C370.49,48.237,322.273,0,258.332,0z"/>
<path style="fill:#117EE1;" d="M265.795,78.602h-19.591c-8.284,0-15-6.716-15-15s6.716-15,15-15h19.591c8.284,0,15,6.716,15,15
	S274.079,78.602,265.795,78.602z"/>
<g>
	<path style="fill:#0C6BCB;" d="M383.432,448.093h-52.6c-8.284,0-15-6.716-15-15s6.716-15,15-15h52.6c8.284,0,15,6.716,15,15
		S391.716,448.093,383.432,448.093z"/>
	<path style="fill:#0C6BCB;" d="M265.795,48.602H256v30h9.795c8.284,0,15-6.716,15-15S274.079,48.602,265.795,48.602z"/>
</g>
<g>
</g>
<g>
</g>
<g>
</g>
<g>
</g>
<g>
</g>
<g>
</g>
<g>
</g>
<g>
</g>
<g>
</g>
<g>
</g>
<g>
</g>
<g>
</g>
<g>
</g>
<g>
</g>
<g>
</g>
</svg>
