<svg xmlns="http://www.w3.org/2000/svg" width="15.94" height="13.998" viewBox="0 0 15.94 13.998"><path d="M5.168,9.332h8.437a.465.465,0,0,0,.449-.339l1.868-6.533a.466.466,0,0,0-.449-.595H4.09L3.756.366A.467.467,0,0,0,3.3,0H.467a.467.467,0,1,0,0,.933H2.925L4.612,8.516A1.4,1.4,0,0,0,5.168,11.2h8.437a.467.467,0,1,0,0-.933H5.168a.467.467,0,1,1,0-.933Zm0,0" transform="translate(0 0)" fill="#77ba00"/><path d="M151,361.4a1.4,1.4,0,1,0,1.4-1.4A1.4,1.4,0,0,0,151,361.4Zm0,0" transform="translate(-146.298 -348.805)" fill="#77ba00"/><path d="M362,361.4a1.4,1.4,0,1,0,1.4-1.4A1.4,1.4,0,0,0,362,361.4Zm0,0" transform="translate(-350.73 -348.805)" fill="#77ba00"/></svg>