<?xml version="1.0" encoding="iso-8859-1"?>
<!-- Generator: Adobe Illustrator 19.0.0, SVG Export Plug-In . SVG Version: 6.00 Build 0)  -->
<svg version="1.1" id="Layer_1" xmlns="http://www.w3.org/2000/svg" xmlns:xlink="http://www.w3.org/1999/xlink" x="0px" y="0px"
	 viewBox="0 0 512 512" style="enable-background:new 0 0 512 512;" xml:space="preserve">
<rect x="38.33" y="113.002" style="fill:#B7E4F9;" width="435.33" height="318"/>
<rect x="256" y="113.002" style="fill:#94D7F6;" width="217.67" height="318"/>
<rect x="69.32" y="113.002" style="fill:#FFFFFF;" width="124.35" height="318"/>
<rect x="130" y="310.332" style="fill:#94D7F6;" width="30" height="30"/>
<g>
	
		<rect x="225.014" y="310.781" transform="matrix(-0.7071 -0.7071 0.7071 -0.7071 141.9754 816.1292)" style="fill:#FFFFFF;" width="30" height="135.759"/>
	
		<rect x="312.999" y="271.805" transform="matrix(-0.7071 -0.7071 0.7071 -0.7071 354.401 728.1192)" style="fill:#FFFFFF;" width="30" height="37.712"/>
	
		<rect x="333.676" y="330.469" transform="matrix(-0.7071 -0.7071 0.7071 -0.7071 348.2174 842.8864)" style="fill:#FFFFFF;" width="30" height="37.712"/>
	
		<rect x="411.011" y="211.641" transform="matrix(-0.7071 -0.7071 0.7071 -0.7071 534.926 765.5351)" style="fill:#FFFFFF;" width="30" height="120.679"/>
</g>
<rect x="0" y="403.372" style="fill:#00CE80;" width="512" height="80.96"/>
<rect x="256" y="403.372" style="fill:#00B973;" width="256" height="80.96"/>
<path style="fill:#FC0023;" d="M53.001,27.669l-3.617,9.812c-0.124,0.336-12.519,33.983-24.643,69.053
	c-25.401,73.468-24.95,81.26-24.68,85.916c1.75,30.262,25.85,54.786,56.058,57.045c1.56,0.116,3.109,0.174,4.649,0.174
	c27.995,0,52.185-18.997,58.938-45.805L138.69,27.669H53.001z"/>
<path style="fill:#4CBCF0;" d="M131.355,27.669l-3.32,10.463c-0.101,0.319-10.245,32.315-20.136,65.967
	c-20.655,70.271-20.141,79.164-19.894,83.438c1.9,32.86,28.069,59.49,60.871,61.942c1.665,0.125,3.327,0.187,4.985,0.187
	c14.4,0,28.406-4.663,39.896-13.365c12.325-9.335,20.992-22.683,24.477-37.66L261.93,27.669H131.355z"/>
<path style="fill:#C80018;" d="M487.258,106.533c-12.123-35.069-24.518-68.717-24.642-69.053l-3.617-9.812H373.31l18.984,176.195
	c6.751,26.811,30.938,45.805,58.94,45.805c1.537,0,3.09-0.058,4.648-0.174c30.207-2.259,54.307-26.783,56.057-57.045
	C512.209,187.794,512.66,180.002,487.258,106.533z"/>
<path style="fill:#3A95BE;" d="M404.101,104.099c-9.891-33.652-20.035-65.648-20.136-65.967l-3.32-10.463H250.07l43.695,170.972
	c3.483,14.978,12.15,28.325,24.477,37.66c11.49,8.703,25.494,13.365,39.896,13.365c1.657,0,3.321-0.062,4.985-0.187
	c32.802-2.453,58.971-29.082,60.871-61.943C424.241,183.263,424.756,174.37,404.101,104.099z"/>
<path style="fill:#FC0023;" d="M310.039,41.199l-1.331-13.53H203.292l-1.331,13.53c-8.932,90.757-13.461,138.186-13.461,140.97
	c0,37.22,30.28,67.5,67.5,67.5s67.5-30.28,67.5-67.5C323.5,179.385,318.971,131.956,310.039,41.199z"/>
<path style="fill:#C80018;" d="M256,249.669c37.22,0,67.5-30.28,67.5-67.5c0-2.784-4.529-50.213-13.461-140.97l-1.331-13.53H256"/>
<g>
</g>
<g>
</g>
<g>
</g>
<g>
</g>
<g>
</g>
<g>
</g>
<g>
</g>
<g>
</g>
<g>
</g>
<g>
</g>
<g>
</g>
<g>
</g>
<g>
</g>
<g>
</g>
<g>
</g>
</svg>
