<svg id="Capa_1" enable-background="new 0 0 512 512" height="512" viewBox="0 0 512 512" width="512" xmlns="http://www.w3.org/2000/svg"><g><path d="m512 256c0 96.3-53.18 180.19-131.78 223.89l-252.77-2.47c-76.21-44.33-127.45-126.89-127.45-221.42 0-46.22 12.25-89.57 33.68-127 44.12-77.07 127.16-129 222.32-129s178.2 51.93 222.32 129c21.43 37.43 33.68 80.78 33.68 127z" fill="#ffdc00"/><path d="m512 256c0 96.31-53.18 180.2-131.78 223.89l-252.77-2.47c-76.21-44.33-127.45-126.89-127.45-221.42 0-46.22 12.25-89.57 33.68-127 23.27 40.64 57.36 74.3 98.35 97.03 12.42 6.89 25.48 12.78 39.05 17.54 15.39 5.41 31.45 9.4 48.02 11.79 12.05 1.74 24.37 2.64 36.9 2.64 18.79 0 37.12-2.03 54.76-5.88 71.68-15.61 132.15-61.27 167.56-123.12 21.43 37.43 33.68 80.78 33.68 127z" fill="#ffbc00"/><g><g><g><g><path d="m310.76 245.58v233.39c0 14.07-8.81 26.09-21.21 30.85-10.98 1.44-22.18 2.18-33.55 2.18-46.85 0-90.77-12.59-128.55-34.58v-231.84c0-6.89 1.61-13.56 4.58-19.55 3.28-6.61 8.22-12.38 14.47-16.68l28.12-19.33c11.14-7.66 17.79-20.3 17.79-33.82v-70.03h53.39v70.03c0 13.52 6.65 26.16 17.78 33.82l28.12 19.33c11.92 8.2 19.06 21.75 19.06 36.23z" fill="#fff"/><path d="m310.76 245.58v233.39c0 14.07-8.81 26.09-21.21 30.85 0 0-.01 0-.02 0-10.97 1.44-22.17 2.18-33.53 2.18-28.49 0-55.89-4.65-81.49-13.26-2.17-5.51-3.45-12.36-3.45-19.77v-233.39c0-.67.01-1.35.02-2.01.33-13.72 4.01-26.4 9.97-34.22l14.74-19.33c5.84-7.66 9.32-20.3 9.32-33.82v-70.03h40.69v70.03c0 13.52 6.65 26.16 17.78 33.82l28.12 19.33c11.92 8.2 19.06 21.75 19.06 36.23z" fill="#cff6ff"/><path d="m310.76 245.58v233.39c0 14.07-8.81 26.09-21.21 30.85 0 0-.01 0-.02 0-10.97 1.44-22.17 2.18-33.53 2.18-12.53 0-24.85-.9-36.9-2.64v-423.19h26.7v70.03c0 13.52 6.65 26.16 17.78 33.82l28.12 19.33c11.92 8.2 19.06 21.75 19.06 36.23z" fill="#b0edf7"/><path d="m251.555 43.247v91.208c0 5.301-4.304 9.574-9.585 9.574h-45.72c-5.301 0-9.585-4.273-9.585-9.574v-91.208c0-5.281 4.283-9.585 9.585-9.585h45.72c5.281 0 9.585 4.305 9.585 9.585z" fill="#fc5b5b"/><path d="m251.543 43.257v91.202c0 5.292-4.291 9.574-9.583 9.574h-29.5c-5.292 0-9.574-4.282-9.574-9.574v-91.202c0-5.292 4.282-9.583 9.574-9.583h29.5c5.292 0 9.583 4.291 9.583 9.583z" fill="#ff3d3b"/><path d="m251.543 43.257v91.202c0 5.292-4.291 9.574-9.583 9.574h-22.858v-110.359h22.858c5.292 0 9.583 4.291 9.583 9.583z" fill="#d32523"/></g><g><path d="m267.143 256.641v123.315c0 3.774-2.242 7.187-5.705 8.687l-42.336 18.333-42.336-18.333c-3.463-1.5-5.705-4.913-5.705-8.687v-123.315c0-5.228 4.239-9.467 9.467-9.467h77.148c5.228 0 9.467 4.238 9.467 9.467z" fill="#ff3d3b"/><path d="m267.143 256.641v123.315c0 3.774-2.242 7.187-5.705 8.687l-42.336 18.333v-159.802h38.574c5.228 0 9.467 4.238 9.467 9.467z" fill="#d32523"/></g><path d="m259.128 422.823v14.758c0 1.617-1.311 2.928-2.928 2.928h-74.196c-1.617 0-2.928-1.311-2.928-2.928v-14.758c0-1.617 1.311-2.928 2.928-2.928h74.196c1.617.001 2.928 1.311 2.928 2.928z" fill="#63455d"/><path d="m219.102 419.896h37.098c1.617 0 2.928 1.311 2.928 2.928v14.758c0 1.617-1.311 2.928-2.928 2.928h-37.098z" fill="#53354b"/><path d="m259.128 459.746v14.758c0 1.617-1.311 2.928-2.928 2.928h-74.196c-1.617 0-2.928-1.311-2.928-2.928v-14.758c0-1.617 1.311-2.928 2.928-2.928h74.196c1.617 0 2.928 1.311 2.928 2.928z" fill="#63455d"/><path d="m219.102 456.818h37.098c1.617 0 2.928 1.311 2.928 2.928v14.758c0 1.617-1.311 2.928-2.928 2.928h-37.098z" fill="#53354b"/></g><path d="m251.555 43.247v22.749h-64.889v-22.749c0-5.281 4.283-9.585 9.585-9.585h45.72c5.28 0 9.584 4.305 9.584 9.585z" fill="#63455d"/><path d="m251.555 43.247v22.749h-48.67v-22.738c0-5.291 4.283-9.585 9.574-9.585l.021-.011h29.489c5.282 0 9.586 4.305 9.586 9.585z" fill="#53354b"/><path d="m251.555 43.247v22.749h-32.45v-32.334h22.865c5.281 0 9.585 4.305 9.585 9.585z" fill="#442f40"/></g><g><path d="m384.54 400.66-4.32 79.23c-27.51 15.3-58.13 25.67-90.67 29.93 0 0-.01 0-.02 0-2.83.37-5.68.7-8.55.97-1.72-1.17-2.89-3.1-3.01-5.33l-5.73-104.8c-.22-3.96 2.94-7.3 6.91-7.3h98.48c3.97 0 7.13 3.34 6.91 7.3z" fill="#fff"/><path d="m384.54 400.66-4.32 79.23c-24.32 13.52-51.06 23.2-79.42 28.2-.22-.8-.35-1.69-.38-2.63l-3.18-104.8c-.12-3.96 1.63-7.3 3.83-7.3h76.56c3.97 0 7.13 3.34 6.91 7.3z" fill="#cff6ff"/><path d="m384.54 400.66-4.32 79.23c-16.27 9.05-33.63 16.37-51.83 21.73v-108.26h49.24c3.97 0 7.13 3.34 6.91 7.3z" fill="#b0edf7"/><path d="m370.906 434.169-3.402 62.228c-.117 2.139-1.888 3.815-4.031 3.815h-70.162c-2.143 0-3.913-1.676-4.029-3.815l-3.402-62.228c-.127-2.313 1.715-4.257 4.029-4.257h76.966c2.317-.001 4.158 1.944 4.031 4.257z" fill="#fff"/><path d="m370.91 434.17-2.85 52.06c-11.25 5.49-22.97 10.17-35.07 13.98h-4.6v-70.3h38.49c2.31 0 4.15 1.95 4.03 4.26z" fill="#cff6ff"/><g><path d="m309.552 439.877 13.315 17.899c.851 1.144.614 2.761-.529 3.611l-17.899 13.316c-1.143.85-2.761.614-3.612-.531l-13.316-17.899c-.85-1.143-.612-2.76.531-3.611l17.899-13.316c1.144-.85 2.761-.612 3.611.531z" fill="#cff6ff"/><path d="m309.552 439.877 13.315 17.899c.851 1.144.614 2.761-.529 3.611l-8.95 6.658-16.396-22.041 8.95-6.658c1.143-.85 2.76-.612 3.61.531z" fill="#b0edf7"/><path d="m300.775 450.18 8.453 11.363-4.614 3.432c-.589.438-1.423.316-1.862-.273l-6.865-9.228c-.439-.59-.315-1.424.273-1.862z" fill="#fff"/><path d="m307.392 448.368 6.722 9.036c.43.577.31 1.393-.268 1.823l-4.518 3.361-8.278-11.127 4.518-3.361c.579-.429 1.395-.309 1.824.268z" fill="#cff6ff"/></g><g><path d="m366.943 468.822-12.764 18.297c-.816 1.17-2.424 1.456-3.593.641l-18.297-12.764c-1.169-.815-1.456-2.424-.64-3.594l12.764-18.297c.815-1.169 2.425-1.454 3.593-.639l18.297 12.764c1.169.815 1.456 2.424.64 3.592z" fill="#cff6ff"/><path d="m366.943 468.822-12.764 18.297c-.816 1.17-2.424 1.456-3.593.641l-9.149-6.382 15.717-22.53 9.149 6.382c1.169.815 1.456 2.424.64 3.592z" fill="#b0edf7"/><path d="m353.263 464.426-7.935 11.374-4.618-3.222c-.589-.411-.735-1.224-.323-1.814l6.444-9.237c.412-.59 1.225-.734 1.814-.323z" fill="#fff"/><path d="m358.205 469.461-6.444 9.237c-.412.59-1.224.735-1.814.323l-4.618-3.222 7.935-11.374 4.618 3.222c.59.412.735 1.224.323 1.814z" fill="#cff6ff"/></g><g><path d="m358.44 408.584h.569c2.519 0 4.562-2.042 4.562-4.562v-.569h3.252v.569c0 2.519 2.042 4.562 4.561 4.562h.569v3.252h-.569c-2.519 0-4.561 2.042-4.561 4.562v.569h-3.252v-.569c0-2.519-2.042-4.562-4.562-4.562h-.569z" fill="#fff"/></g></g></g></g></svg>